<svg xmlns="http://www.w3.org/2000/svg" xmlns:xlink="http://www.w3.org/1999/xlink" width="1600" zoomAndPan="magnify" viewBox="0 0 1200 525.000007" height="700" preserveAspectRatio="xMidYMid meet" version="1.0"><defs><clipPath id="71122d7d80"><path d="M 1.140625 0 L 176.308594 0 L 176.308594 524 L 1.140625 524 Z M 1.140625 0 " clip-rule="nonzero"/></clipPath><clipPath id="7b3ace5f20"><path d="M 333.847656 0 L 860.097656 0 L 860.097656 524 L 333.847656 524 Z M 333.847656 0 " clip-rule="nonzero"/></clipPath><clipPath id="4e09b4c61a"><path d="M 1064.015625 0 L 1198.761719 0 L 1198.761719 524 L 1064.015625 524 Z M 1064.015625 0 " clip-rule="nonzero"/></clipPath><clipPath id="838a2e8aa5"><path d="M 847.90625 0 L 1074.109375 0 L 1074.109375 25.59375 L 847.90625 25.59375 Z M 847.90625 0 " clip-rule="nonzero"/></clipPath><clipPath id="fe4012cd40"><path d="M 847.90625 496.570312 L 1074.109375 496.570312 L 1074.109375 524 L 847.90625 524 Z M 847.90625 496.570312 " clip-rule="nonzero"/></clipPath><clipPath id="4726b5e43d"><path d="M 164.03125 496.570312 L 364.972656 496.570312 L 364.972656 524 L 164.03125 524 Z M 164.03125 496.570312 " clip-rule="nonzero"/></clipPath><clipPath id="3080052da6"><path d="M 164.03125 0 L 377.816406 0 L 377.816406 25.59375 L 164.03125 25.59375 Z M 164.03125 0 " clip-rule="nonzero"/></clipPath></defs><g clip-path="url(#71122d7d80)"><path fill="#12f6fc" d="M 794.589844 8.960938 L 785.246094 8.960938 C 782.171875 5.886719 779.851562 3.566406 776.285156 0 L 564.265625 0 C 560.699219 3.566406 558.378906 5.886719 555.304688 8.960938 L 546.636719 8.960938 L 545.933594 9.664062 C 540.054688 15.539062 534.179688 21.414062 526.734375 28.847656 L 317.675781 28.847656 C 310.234375 21.414062 304.359375 15.539062 298.480469 9.664062 L 297.777344 8.960938 L 288.773438 8.960938 C 285.703125 5.886719 283.382812 3.566406 279.8125 0 L 67.8125 0 C 64.242188 3.566406 61.921875 5.886719 58.851562 8.960938 L 49.839844 8.960938 L 0.773438 58.015625 L 0.773438 465.976562 L 49.839844 515.03125 L 58.851562 515.03125 C 61.921875 518.105469 64.242188 520.425781 67.8125 523.992188 L 279.828125 523.992188 C 283.398438 520.425781 285.71875 518.105469 288.789062 515.03125 L 297.792969 515.03125 L 298.496094 514.328125 C 304.375 508.453125 310.246094 502.578125 317.691406 495.144531 L 526.75 495.144531 C 534.195312 502.578125 540.066406 508.453125 545.945312 514.328125 L 546.652344 515.03125 L 555.320312 515.03125 C 558.394531 518.105469 560.710938 520.425781 564.28125 523.992188 L 776.296875 523.992188 C 779.867188 520.425781 782.1875 518.105469 785.257812 515.03125 L 794.601562 515.03125 L 843.667969 465.976562 L 843.667969 58.015625 L 794.601562 8.960938 Z M 838.859375 175.527344 C 833.398438 180.988281 829.691406 184.695312 823.660156 190.726562 L 823.660156 333.265625 C 829.691406 339.296875 833.398438 343.003906 838.859375 348.464844 L 838.859375 463.988281 L 792.601562 510.242188 L 742.078125 510.242188 C 739.003906 507.167969 736.683594 504.847656 733.117188 501.28125 L 607.433594 501.28125 C 603.867188 504.847656 601.546875 507.167969 598.472656 510.242188 L 548.625 510.242188 C 542.792969 504.414062 536.902344 498.519531 529.425781 491.058594 L 528.722656 490.355469 L 315.695312 490.355469 L 314.992188 491.058594 C 307.511719 498.523438 301.621094 504.414062 295.792969 510.242188 L 245.617188 510.242188 C 242.542969 507.167969 240.222656 504.847656 236.65625 501.28125 L 110.972656 501.28125 C 107.40625 504.847656 105.085938 507.167969 102.011719 510.242188 L 51.820312 510.242188 L 5.5625 463.988281 L 5.5625 348.972656 C 11.304688 343.226562 15.058594 339.476562 21.273438 333.261719 L 21.273438 190.71875 C 15.058594 184.503906 11.304688 180.753906 5.5625 175.011719 L 5.5625 60.003906 L 51.828125 13.75 L 102.019531 13.75 C 105.089844 16.824219 107.410156 19.144531 110.980469 22.710938 L 236.660156 22.710938 C 240.230469 19.144531 242.550781 16.824219 245.621094 13.75 L 295.796875 13.75 C 301.628906 19.578125 307.519531 25.472656 314.996094 32.933594 L 315.699219 33.632812 L 528.726562 33.632812 L 529.429688 32.929688 C 536.910156 25.460938 542.800781 19.574219 548.628906 13.746094 L 598.476562 13.746094 C 601.550781 16.820312 603.871094 19.136719 607.4375 22.707031 L 733.121094 22.707031 C 736.6875 19.136719 739.007812 16.820312 742.082031 13.746094 L 792.605469 13.746094 L 838.867188 59.996094 L 838.867188 175.519531 Z M 838.859375 175.527344 " fill-opacity="1" fill-rule="nonzero"/></g><path fill="#12f6fc" d="M 15.058594 167.0625 L 11.222656 167.0625 L 11.222656 62.894531 L 55.65625 18.46875 L 97.859375 18.46875 L 97.859375 22.304688 L 57.25 22.304688 L 15.058594 64.488281 Z M 15.058594 167.0625 " fill-opacity="1" fill-rule="nonzero"/><path fill="#12f6fc" d="M 97.859375 505.324219 L 55.65625 505.324219 L 11.222656 460.898438 L 11.222656 356.730469 L 15.058594 356.730469 L 15.058594 459.308594 L 57.25 501.488281 L 97.859375 501.488281 Z M 97.859375 505.324219 " fill-opacity="1" fill-rule="nonzero"/><path fill="#12f6fc" d="M 509.730469 9.023438 L 521.09375 20.386719 L 512.1875 20.386719 C 507.757812 15.945312 505.265625 13.464844 500.832031 9.023438 L 509.734375 9.023438 Z M 509.730469 9.023438 " fill-opacity="1" fill-rule="nonzero"/><path fill="#12f6fc" d="M 528.890625 9.023438 L 540.246094 20.386719 L 530.253906 20.386719 L 518.890625 9.023438 Z M 528.890625 9.023438 " fill-opacity="1" fill-rule="nonzero"/><path fill="#12f6fc" d="M 548.035156 9.023438 L 559.402344 20.386719 L 549.40625 20.386719 L 538.042969 9.023438 Z M 548.035156 9.023438 " fill-opacity="1" fill-rule="nonzero"/><path fill="#12f6fc" d="M 567.1875 9.023438 L 578.546875 20.386719 L 568.554688 20.386719 L 557.203125 9.023438 Z M 567.1875 9.023438 " fill-opacity="1" fill-rule="nonzero"/><path fill="#12f6fc" d="M 660.039062 9.023438 L 648.675781 20.386719 L 587.71875 20.386719 L 576.351562 9.023438 Z M 660.039062 9.023438 " fill-opacity="1" fill-rule="nonzero"/><path fill="#12f6fc" d="M 679.1875 9.023438 L 667.835938 20.386719 L 657.839844 20.386719 L 669.207031 9.023438 Z M 679.1875 9.023438 " fill-opacity="1" fill-rule="nonzero"/><path fill="#12f6fc" d="M 698.351562 9.023438 L 686.984375 20.386719 L 676.992188 20.386719 L 688.359375 9.023438 Z M 698.351562 9.023438 " fill-opacity="1" fill-rule="nonzero"/><path fill="#12f6fc" d="M 717.503906 9.023438 L 706.136719 20.386719 L 696.144531 20.386719 L 707.5 9.023438 Z M 717.503906 9.023438 " fill-opacity="1" fill-rule="nonzero"/><path fill="#12f6fc" d="M 735.558594 9.023438 C 733.34375 11.25 731.609375 12.972656 729.886719 14.699219 C 728.160156 16.433594 726.425781 18.167969 724.210938 20.382812 L 715.300781 20.382812 L 726.667969 9.019531 L 735.570312 9.019531 Z M 735.558594 9.023438 " fill-opacity="1" fill-rule="nonzero"/><path fill="#12f6fc" d="M 509.730469 514.96875 L 521.09375 503.605469 L 512.1875 503.605469 C 507.757812 508.046875 505.265625 510.527344 500.832031 514.96875 L 509.734375 514.96875 Z M 509.730469 514.96875 " fill-opacity="1" fill-rule="nonzero"/><path fill="#12f6fc" d="M 528.890625 514.96875 L 540.246094 503.605469 L 530.253906 503.605469 L 518.890625 514.96875 Z M 528.890625 514.96875 " fill-opacity="1" fill-rule="nonzero"/><path fill="#12f6fc" d="M 548.035156 514.96875 L 559.402344 503.605469 L 549.40625 503.605469 L 538.042969 514.96875 Z M 548.035156 514.96875 " fill-opacity="1" fill-rule="nonzero"/><path fill="#12f6fc" d="M 567.1875 514.96875 L 578.546875 503.605469 L 568.554688 503.605469 L 557.203125 514.96875 Z M 567.1875 514.96875 " fill-opacity="1" fill-rule="nonzero"/><path fill="#12f6fc" d="M 660.039062 514.96875 L 648.675781 503.605469 L 587.71875 503.605469 L 576.351562 514.96875 Z M 660.039062 514.96875 " fill-opacity="1" fill-rule="nonzero"/><path fill="#12f6fc" d="M 679.1875 514.96875 L 667.835938 503.605469 L 657.839844 503.605469 L 669.207031 514.96875 Z M 679.1875 514.96875 " fill-opacity="1" fill-rule="nonzero"/><path fill="#12f6fc" d="M 698.351562 514.96875 L 686.984375 503.605469 L 676.992188 503.605469 L 688.359375 514.96875 Z M 698.351562 514.96875 " fill-opacity="1" fill-rule="nonzero"/><path fill="#12f6fc" d="M 717.503906 514.96875 L 706.136719 503.605469 L 696.144531 503.605469 L 707.5 514.96875 Z M 717.503906 514.96875 " fill-opacity="1" fill-rule="nonzero"/><path fill="#12f6fc" d="M 735.558594 514.96875 C 733.34375 512.742188 731.609375 511.019531 729.886719 509.292969 C 728.160156 507.558594 726.425781 505.824219 724.210938 503.609375 L 715.300781 503.609375 L 726.667969 514.972656 L 735.570312 514.972656 Z M 735.558594 514.96875 " fill-opacity="1" fill-rule="nonzero"/><g clip-path="url(#7b3ace5f20)"><path fill="#12f6fc" d="M 990.570312 8.960938 L 981.226562 8.960938 C 978.15625 5.886719 975.835938 3.566406 972.265625 0 L 760.25 0 C 756.679688 3.566406 754.359375 5.886719 751.289062 8.960938 L 742.617188 8.960938 L 741.914062 9.664062 C 736.035156 15.539062 730.164062 21.414062 722.71875 28.847656 L 513.660156 28.847656 C 506.214844 21.414062 500.34375 15.539062 494.464844 9.664062 L 493.757812 8.960938 L 484.757812 8.960938 C 481.683594 5.886719 479.363281 3.566406 475.796875 0 L 263.792969 0 C 260.226562 3.566406 257.90625 5.886719 254.832031 8.960938 L 245.820312 8.960938 L 196.753906 58.015625 L 196.753906 465.976562 L 245.820312 515.03125 L 254.832031 515.03125 C 257.90625 518.105469 260.226562 520.425781 263.792969 523.992188 L 475.8125 523.992188 C 479.378906 520.425781 481.699219 518.105469 484.773438 515.03125 L 493.773438 515.03125 L 494.476562 514.328125 C 500.355469 508.453125 506.230469 502.578125 513.675781 495.144531 L 722.734375 495.144531 C 730.175781 502.578125 736.050781 508.453125 741.929688 514.328125 L 742.632812 515.03125 L 751.304688 515.03125 C 754.375 518.105469 756.695312 520.425781 760.265625 523.992188 L 972.28125 523.992188 C 975.851562 520.425781 978.167969 518.105469 981.242188 515.03125 L 990.585938 515.03125 L 1039.652344 465.976562 L 1039.652344 58.015625 L 990.585938 8.960938 Z M 1034.84375 175.527344 C 1029.382812 180.988281 1025.675781 184.695312 1019.640625 190.726562 L 1019.640625 333.265625 C 1025.675781 339.296875 1029.382812 343.003906 1034.84375 348.464844 L 1034.84375 463.988281 L 988.582031 510.242188 L 938.058594 510.242188 C 934.988281 507.167969 932.667969 504.847656 929.097656 501.28125 L 803.417969 501.28125 C 799.847656 504.847656 797.527344 507.167969 794.457031 510.242188 L 744.605469 510.242188 C 738.777344 504.414062 732.882812 498.519531 725.410156 491.058594 L 724.707031 490.355469 L 511.675781 490.355469 L 510.972656 491.058594 C 503.496094 498.523438 497.605469 504.414062 491.777344 510.242188 L 441.601562 510.242188 C 438.527344 507.167969 436.207031 504.847656 432.636719 501.28125 L 306.957031 501.28125 C 303.386719 504.847656 301.070312 507.167969 297.996094 510.242188 L 247.804688 510.242188 L 201.542969 463.988281 L 201.542969 348.972656 C 207.289062 343.226562 211.039062 339.476562 217.257812 333.261719 L 217.257812 190.71875 C 211.039062 184.503906 207.289062 180.753906 201.542969 175.011719 L 201.542969 60.003906 L 247.808594 13.75 L 298 13.75 C 301.074219 16.824219 303.394531 19.144531 306.960938 22.710938 L 432.644531 22.710938 C 436.210938 19.144531 438.53125 16.824219 441.605469 13.75 L 491.78125 13.75 C 497.609375 19.578125 503.503906 25.472656 510.980469 32.933594 L 511.683594 33.632812 L 724.710938 33.632812 L 725.414062 32.929688 C 732.894531 25.460938 738.78125 19.574219 744.613281 13.746094 L 794.460938 13.746094 C 797.535156 16.820312 799.851562 19.136719 803.421875 22.707031 L 929.105469 22.707031 C 932.671875 19.136719 934.992188 16.820312 938.066406 13.746094 L 988.589844 13.746094 L 1034.847656 59.996094 L 1034.847656 175.519531 Z M 1034.84375 175.527344 " fill-opacity="1" fill-rule="nonzero"/></g><g clip-path="url(#4e09b4c61a)"><path fill="#12f6fc" d="M 1149.589844 8.960938 L 1140.25 8.960938 C 1137.175781 5.886719 1134.855469 3.566406 1131.285156 0 L 919.269531 0 C 915.703125 3.566406 913.382812 5.886719 910.308594 8.960938 L 901.640625 8.960938 L 900.933594 9.664062 C 895.058594 15.539062 889.183594 21.414062 881.738281 28.847656 L 672.679688 28.847656 C 665.234375 21.414062 659.363281 15.539062 653.484375 9.664062 L 652.78125 8.960938 L 643.777344 8.960938 C 640.707031 5.886719 638.386719 3.566406 634.816406 0 L 422.816406 0 C 419.246094 3.566406 416.925781 5.886719 413.851562 8.960938 L 404.84375 8.960938 L 355.777344 58.015625 L 355.777344 465.976562 L 404.84375 515.03125 L 413.851562 515.03125 C 416.925781 518.105469 419.246094 520.425781 422.816406 523.992188 L 634.832031 523.992188 C 638.402344 520.425781 640.71875 518.105469 643.792969 515.03125 L 652.792969 515.03125 L 653.5 514.328125 C 659.378906 508.453125 665.25 502.578125 672.695312 495.144531 L 881.753906 495.144531 C 889.199219 502.578125 895.070312 508.453125 900.949219 514.328125 L 901.652344 515.03125 L 910.324219 515.03125 C 913.394531 518.105469 915.714844 520.425781 919.285156 523.992188 L 1131.300781 523.992188 C 1134.871094 520.425781 1137.191406 518.105469 1140.261719 515.03125 L 1149.605469 515.03125 L 1198.671875 465.976562 L 1198.671875 58.015625 L 1149.605469 8.960938 Z M 1193.863281 175.527344 C 1188.402344 180.988281 1184.695312 184.695312 1178.664062 190.726562 L 1178.664062 333.265625 C 1184.695312 339.296875 1188.402344 343.003906 1193.863281 348.464844 L 1193.863281 463.988281 L 1147.605469 510.242188 L 1097.082031 510.242188 C 1094.007812 507.167969 1091.6875 504.847656 1088.117188 501.28125 L 962.4375 501.28125 C 958.867188 504.847656 956.550781 507.167969 953.476562 510.242188 L 903.625 510.242188 C 897.796875 504.414062 891.90625 498.519531 884.429688 491.058594 L 883.726562 490.355469 L 670.699219 490.355469 L 669.996094 491.058594 C 662.515625 498.523438 656.625 504.414062 650.796875 510.242188 L 600.621094 510.242188 C 597.546875 507.167969 595.226562 504.847656 591.660156 501.28125 L 465.976562 501.28125 C 462.410156 504.847656 460.089844 507.167969 457.015625 510.242188 L 406.824219 510.242188 L 360.5625 463.988281 L 360.5625 348.972656 C 366.308594 343.226562 370.0625 339.476562 376.277344 333.261719 L 376.277344 190.71875 C 370.0625 184.503906 366.308594 180.753906 360.5625 175.011719 L 360.5625 60.003906 L 406.828125 13.75 L 457.019531 13.75 C 460.09375 16.824219 462.414062 19.144531 465.984375 22.710938 L 591.664062 22.710938 C 595.234375 19.144531 597.550781 16.824219 600.625 13.75 L 650.800781 13.75 C 656.632812 19.578125 662.523438 25.472656 670 32.933594 L 670.703125 33.632812 L 883.730469 33.632812 L 884.433594 32.929688 C 891.914062 25.460938 897.804688 19.574219 903.632812 13.746094 L 953.480469 13.746094 C 956.554688 16.820312 958.875 19.136719 962.441406 22.707031 L 1088.125 22.707031 C 1091.691406 19.136719 1094.011719 16.820312 1097.085938 13.746094 L 1147.609375 13.746094 L 1193.871094 59.996094 L 1193.871094 175.519531 Z M 1193.863281 175.527344 " fill-opacity="1" fill-rule="nonzero"/></g><path fill="#12f6fc" d="M 1188.210938 167.0625 L 1184.371094 167.0625 L 1184.371094 64.488281 L 1142.179688 22.304688 L 1101.578125 22.304688 L 1101.578125 18.46875 L 1143.773438 18.46875 L 1188.210938 62.894531 Z M 1188.210938 167.0625 " fill-opacity="1" fill-rule="nonzero"/><path fill="#12f6fc" d="M 1143.773438 505.324219 L 1101.578125 505.324219 L 1101.578125 501.488281 L 1142.179688 501.488281 L 1184.371094 459.308594 L 1184.371094 356.730469 L 1188.210938 356.730469 L 1188.210938 460.898438 Z M 1143.773438 505.324219 " fill-opacity="1" fill-rule="nonzero"/><g clip-path="url(#838a2e8aa5)"><path fill="#12f6fc" d="M 847.90625 0 L 1074.109375 0 L 1074.109375 25.59375 L 847.90625 25.59375 Z M 847.90625 0 " fill-opacity="1" fill-rule="nonzero"/></g><g clip-path="url(#fe4012cd40)"><path fill="#12f6fc" d="M 847.90625 496.570312 L 1074.109375 496.570312 L 1074.109375 524 L 847.90625 524 Z M 847.90625 496.570312 " fill-opacity="1" fill-rule="nonzero"/></g><g clip-path="url(#4726b5e43d)"><path fill="#12f6fc" d="M 164.03125 496.570312 L 364.972656 496.570312 L 364.972656 524 L 164.03125 524 Z M 164.03125 496.570312 " fill-opacity="1" fill-rule="nonzero"/></g><g clip-path="url(#3080052da6)"><path fill="#12f6fc" d="M 164.03125 0 L 377.816406 0 L 377.816406 25.59375 L 164.03125 25.59375 Z M 164.03125 0 " fill-opacity="1" fill-rule="nonzero"/></g></svg>